<svg xmlns="http://www.w3.org/2000/svg" xmlns:xlink="http://www.w3.org/1999/xlink" viewBox="0 0 113.23 50.14"><defs><style>.cls-1{fill:none;}.cls-2{clip-path:url(#clip-path);}.cls-3{fill:#fff;}</style><clipPath id="clip-path" transform="translate(-0.05 -0.09)"><rect class="cls-1" width="113" height="50"/></clipPath></defs><title>Asset 4</title><g id="Layer_2" data-name="Layer 2"><g id="Layer_1-2" data-name="Layer 1"><g class="cls-2"><path class="cls-3" d="M.05,50.23V.09H113.28V50.23ZM97.89,36.51V10.87c-1.75.81-3.41,1.6-5.09,2.35a1,1,0,0,0-.64,1c0,3.61,0,7.21,0,10.82,0,.25,0,.5,0,.95l-.5-.78q-4.2-6.58-8.41-13.15c-.15-.24-.4-.58-.61-.58-1.64,0-3.28,0-4.92,0v25h5.6V21.74l.59.9q4.22,6.66,8.45,13.3a1.14,1.14,0,0,0,.71.54C94.62,36.53,96.21,36.51,97.89,36.51Zm-69-12.56c0,.46,0,.92,0,1.37a13.27,13.27,0,0,0,1.87,6.51c2.22,3.43,5.5,4.93,9.51,5a10.54,10.54,0,0,0,10.82-7.44,17.15,17.15,0,0,0,0-10.71A10.32,10.32,0,0,0,45.18,12a12.12,12.12,0,0,0-7.84-.5,10.3,10.3,0,0,0-6.89,5.18A14.2,14.2,0,0,0,28.85,23.95ZM60.23,11.55H54.61v24.9h5.63V25.6h8.11V36.46H74V10.9a40.23,40.23,0,0,1-3.9,1.81,2.3,2.3,0,0,0-1.76,2.8c.16,1.65,0,3.33,0,5H60.23ZM16.41,36.66c1.07,0,2.11.05,3.14,0,2.89-.17,5.15-1.35,6.21-4.2a9.1,9.1,0,0,0,.63-3c.08-5.16.06-10.31.07-15.47a.72.72,0,0,0-.25-.56c-1.74-.86-3.5-1.69-5.38-2.59v.94q0,7.85,0,15.7a16,16,0,0,1-.07,1.67,2.34,2.34,0,0,1-2.7,2.42H16.41Z" transform="translate(-0.05 -0.09)"/><path d="M97.89,36.51c-1.68,0-3.28,0-4.87,0a1.14,1.14,0,0,1-.71-.54q-4.24-6.64-8.45-13.3l-.59-.9V36.45h-5.6v-25c1.64,0,3.28,0,4.92,0,.21,0,.46.35.61.58q4.22,6.57,8.41,13.15l.5.78c0-.45,0-.7,0-.95,0-3.61,0-7.21,0-10.82a1,1,0,0,1,.64-1c1.68-.75,3.35-1.54,5.09-2.35Z" transform="translate(-0.05 -0.09)"/><path d="M28.85,23.95a14.2,14.2,0,0,1,1.6-7.27,10.3,10.3,0,0,1,6.89-5.18,12.12,12.12,0,0,1,7.84.5,10.32,10.32,0,0,1,5.88,6.71,17.15,17.15,0,0,1,0,10.71,10.54,10.54,0,0,1-10.82,7.44c-4-.1-7.3-1.6-9.51-5a13.27,13.27,0,0,1-1.87-6.51C28.82,24.86,28.85,24.4,28.85,23.95Zm5.71,0a38.76,38.76,0,0,0,.7,3.87c.7,2.43,2.46,3.65,5.12,3.73a4.92,4.92,0,0,0,5.11-3.43,12.1,12.1,0,0,0-.21-8.56,4.74,4.74,0,0,0-4.78-3.11c-2.45,0-4.24,1.07-5,3.24A34,34,0,0,0,34.55,24Z" transform="translate(-0.05 -0.09)"/><path d="M60.23,11.55v9h8.11c0-1.7.12-3.38,0-5a2.3,2.3,0,0,1,1.76-2.8A40.23,40.23,0,0,0,74,10.9V36.46H68.35V25.6H60.24V36.45H54.61V11.55Z" transform="translate(-0.05 -0.09)"/><path d="M16.41,36.66v-5h1.65a2.34,2.34,0,0,0,2.7-2.42,16,16,0,0,0,.07-1.67q0-7.85,0-15.7v-.94c1.88.9,3.64,1.73,5.38,2.59a.72.72,0,0,1,.25.56c0,5.16,0,10.31-.07,15.47a9.1,9.1,0,0,1-.63,3c-1.06,2.85-3.33,4-6.21,4.2C18.51,36.71,17.48,36.66,16.41,36.66Z" transform="translate(-0.05 -0.09)"/><path class="cls-3" d="M34.55,24a34,34,0,0,1,.94-4.26c.75-2.17,2.55-3.24,5-3.24a4.74,4.74,0,0,1,4.78,3.11,12.1,12.1,0,0,1,.21,8.56,4.92,4.92,0,0,1-5.11,3.43c-2.65-.07-4.42-1.3-5.12-3.73A38.76,38.76,0,0,1,34.55,24Z" transform="translate(-0.05 -0.09)"/></g></g></g></svg>