<?xml version="1.0" encoding="UTF-8"?>
<svg width="781px" height="192px" viewBox="0 0 781 192" version="1.1" xmlns="http://www.w3.org/2000/svg" xmlns:xlink="http://www.w3.org/1999/xlink" style="background: #FFFFFF;">
    <!-- Generator: Sketch 43.1 (39012) - http://www.bohemiancoding.com/sketch -->
    <title>Artboard 2</title>
    <desc>Created with Sketch.</desc>
    <defs>
        <rect id="path-1" x="0" y="0" width="781" height="192" rx="3"></rect>
        <mask id="mask-2" maskContentUnits="userSpaceOnUse" maskUnits="objectBoundingBox" x="0" y="0" width="781" height="192" fill="white">
            <use xlink:href="#path-1"></use>
        </mask>
    </defs>
    <g id="Page-1" stroke="none" stroke-width="1" fill="none" fill-rule="evenodd">
        <g id="Artboard-2">
            <use id="Rectangle" stroke="#646464" mask="url(#mask-2)" stroke-width="4" stroke-dasharray="4,3" xlink:href="#path-1"></use>
            <g id="Group-2" transform="translate(196.000000, 44.500000)" font-size="36" fill="#222222">
                <text id="Download-Full-Size-F" opacity="0.7" font-family="FiraSans-SemiBold, Fira Sans" font-weight="500">
                    <tspan x="0" y="89">Download Full-Size Files</tspan>
                </text>
                <text id=".PNGs-+-.Sketch-+-As" opacity="0.564877717" font-family="FiraSans-Regular, Fira Sans" font-weight="normal">
                    <tspan x="0" y="38">.PNGs + .Sketch + Assets</tspan>
                </text>
            </g>
            <g id="dropbox-(1)" transform="translate(39.000000, 39.000000)" fill-rule="nonzero">
                <g id="Group" transform="translate(3.000000, 3.000000)" fill="#5387FC">
                    <path d="M20.8181402,80.691075 L20.8181402,87.510375 C20.8181402,88.229025 21.3772012,89.2269 21.9904085,89.60355 L51.8178232,107.921025 L51.8178232,69.1686 L33.0030976,84.590325 C32.3673293,85.112325 31.4687256,85.411125 30.5385366,85.411125 C29.8953232,85.411125 29.2886585,85.268025 28.7855488,84.996 L20.8181402,80.691075 Z" id="Shape"></path>
                    <path d="M32.3878598,75.215475 L32.3878598,75.215475 C32.833439,75.215475 33.277439,75.070125 33.5472683,74.837025 L49.7713171,60.795 C49.9166098,60.669225 49.9944451,60.53355 49.9854207,60.422625 C49.9757195,60.3108 49.8762256,60.19065 49.7117561,60.09075 L20.7380488,42.548175 C20.517628,42.4143 20.2182439,42.34095 19.8953963,42.34095 C19.4552317,42.34095 19.0310854,42.476625 18.7619329,42.70455 L1.87188415,57.002625 C1.73132927,57.121875 1.65214024,57.25125 1.66071341,57.348675 C1.6695122,57.4461 1.76923171,57.560175 1.9285122,57.65355 L31.5675427,75.01905 C31.7834512,75.1455 32.0744878,75.215475 32.3878598,75.215475 Z" id="Shape"></path>
                    <path d="M20.0916768,35.7093 C20.4264817,35.7093 20.7360183,35.633025 20.9625305,35.49465 L51.9913171,16.5798 C52.1499207,16.48305 52.2487378,16.36515 52.2561829,16.26435 C52.263628,16.162875 52.1824085,16.0326 52.039372,15.9138 L33.356628,0.43335 C33.0895061,0.2124 32.6703232,0.07965 32.235122,0.07965 C31.9046037,0.07965 31.5982256,0.156375 31.3732927,0.294975 L0.308182927,19.4229 C0.150256098,19.51965 0.0521158537,19.63755 0.0451219512,19.736775 C0.0381280488,19.836675 0.11979878,19.966275 0.263737805,20.083275 L18.9582134,35.356275 C19.2284939,35.577225 19.6526402,35.7093 20.0916768,35.7093 Z" id="Shape"></path>
                    <path d="M110.691591,19.42695 L79.6312195,0.30195 C79.4062866,0.163575 79.0996829,0.0873 78.7687134,0.0873 C78.334189,0.0873 77.9154573,0.219375 77.6476585,0.44055 L58.9658171,15.9147 C58.8225549,16.03305 58.741561,16.164 58.7490061,16.264575 C58.7566768,16.3656 58.8552683,16.483275 59.013872,16.580025 L90.0422073,35.494875 C90.269622,35.63325 90.5787073,35.709525 90.9132866,35.709525 C91.3523232,35.709525 91.7762439,35.57745 92.0462988,35.35695 L110.73536,20.087325 C110.878622,19.970325 110.960293,19.841175 110.953524,19.741275 C110.947884,19.640925 110.849518,19.5237 110.691591,19.42695 Z" id="Shape"></path>
                    <path d="M109.133756,57.003075 L92.2394207,42.704325 C91.9704939,42.4764 91.5470244,42.340725 91.1064085,42.340725 C90.783561,42.340725 90.4839512,42.4143 90.2630793,42.54795 L61.291628,60.090075 C61.1273841,60.189975 61.0278902,60.31035 61.0184146,60.421275 C61.0087134,60.5322 61.0867744,60.66765 61.2320671,60.7932 L77.4649146,74.836575 C77.7345183,75.06945 78.1787439,75.214575 78.6243232,75.214575 C78.9372439,75.214575 79.2291829,75.144375 79.4455427,75.017925 L109.076902,57.652875 C109.236183,57.55905 109.336354,57.4452 109.344476,57.348 C109.3535,57.2517 109.274311,57.12255 109.133756,57.003075 Z" id="Shape"></path>
                    <path d="M89.0030488,89.604 C89.6167073,89.227125 90.1757683,88.229475 90.1757683,87.5106 L90.1757683,80.714475 L82.2155793,84.996 C81.7122439,85.2678 81.1058049,85.41135 80.4623659,85.41135 C79.5317256,85.41135 78.6340244,85.113 77.9980305,84.591675 L59.1812744,69.1695 L59.1957134,107.8965 L89.0030488,89.604 Z" id="Shape"></path>
                </g>
                <g id="Group" fill="#3C60B3">
                    <path d="M53.7294347,111.965952 C53.3133723,111.965952 52.8977583,111.852608 52.5307895,111.626592 L22.8935185,93.390304 C21.6094639,92.60048 20.6410429,90.868512 20.6410429,89.36144 L20.6410429,82.572448 C20.6410429,81.767392 21.0651754,81.021696 21.7576413,80.609536 C22.4494347,80.197152 23.3082359,80.179904 24.0166179,80.56384 L31.9330117,84.85008 C32.094191,84.93744 32.332037,84.987392 32.585575,84.987392 C33.0547661,84.987392 33.4150097,84.827904 33.5811209,84.691264 L52.2776998,69.336512 C52.9609747,68.775616 53.9065302,68.65824 54.7061501,69.036128 C55.50577,69.413568 56.0157602,70.217952 56.0157602,71.101632 L56.0157602,109.681824 C56.0157602,110.509504 55.5676413,111.272672 54.8444639,111.67632 C54.4974464,111.869632 54.1132164,111.965952 53.7294347,111.965952 Z M25.360078,89.542208 L51.4431092,105.59136 L51.4431092,75.936 L36.4861598,88.219488 C35.4392788,89.080992 34.0532261,89.556544 32.5853509,89.556544 C31.5655945,89.556544 30.5866374,89.318208 29.7540643,88.867296 L25.2134698,86.408896 L25.2134698,89.280128 C25.2405945,89.358528 25.3071735,89.47792 25.360078,89.542208 Z" id="Shape"></path>
                    <path d="M34.4231092,79.40576 C33.6994834,79.40576 33.0162086,79.229024 32.4472612,78.89392 L2.99986355,61.606944 C2.19463938,61.133856 1.69002924,60.379424 1.61448343,59.53696 C1.54207602,58.685312 1.90814815,57.855616 2.61787524,57.250816 L19.4042885,43.012928 C20.0821832,42.43792 21.0319981,42.108192 22.0100585,42.108192 C22.7552047,42.108192 23.4557407,42.29456 24.0356725,42.64736 L52.8226608,60.1104 C53.6184698,60.594464 54.1147856,61.356288 54.1862963,62.20144 C54.256462,63.048832 53.8950975,63.88144 53.1945614,64.489152 L37.0734893,78.46944 C36.3864035,79.064832 35.4208967,79.40576 34.4231092,79.40576 Z M7.60726121,59.012352 L34.3982261,74.73984 L48.2811696,62.700736 L22.0322515,46.777472 L7.60726121,59.012352 Z" id="Shape"></path>
                    <path d="M22.2053119,40.075168 C21.2427193,40.075168 20.3041131,39.758432 19.6302534,39.206496 L1.05517544,24.001376 C0.33042885,23.410912 -0.0535769981,22.581888 0.00605263158,21.730688 C0.0629922027,20.887552 0.553479532,20.120128 1.35108187,19.630464 L32.2141228,0.589568 C32.8003314,0.226688 33.5127485,0.034496 34.2715692,0.034496 C35.2339376,0.034496 36.1720955,0.354592 36.8455068,0.9128 L55.4104971,16.325792 C56.1296394,16.92544 56.5051267,17.750656 56.4452729,18.593344 C56.3831774,19.445216 55.8902242,20.209728 55.092846,20.696032 L24.2629825,39.526368 C23.675653,39.885216 22.9639084,40.075168 22.2053119,40.075168 Z M5.99277778,22.136352 L22.2194347,35.419328 L50.4699805,18.164384 L34.2536355,4.701312 L5.99277778,22.136352 Z" id="Shape"></path>
                    <path d="M92.5756725,40.075616 C91.8175244,40.075616 91.1055556,39.885664 90.5175536,39.526592 L59.6870175,20.695584 C58.8921053,20.209504 58.4002729,19.447232 58.3366082,18.604096 C58.272271,17.754912 58.6495517,16.924096 59.3722807,16.32512 L77.9339084,0.921088 C78.6106823,0.361536 79.5481676,0.042112 80.5085185,0.042112 C81.2662183,0.042112 81.9775146,0.233632 82.5650682,0.595392 L113.429006,19.636288 C114.230195,20.12976 114.718889,20.902112 114.770448,21.755552 C114.828285,22.584352 114.445624,23.412032 113.719084,24.005856 L95.1502827,39.206944 C94.4746296,39.759552 93.5366959,40.075616 92.5756725,40.075616 Z M64.3119006,18.16528 L92.5615497,35.419552 L108.783051,22.14016 L80.5271248,4.70848 L64.3119006,18.16528 Z" id="Shape"></path>
                    <path d="M80.3646004,79.405312 C79.3674854,79.405312 78.4019786,79.064832 77.7160136,78.471456 L61.585078,64.489152 C60.8831969,63.882336 60.5207115,63.04704 60.5928947,62.199648 C60.666423,61.35248 61.1622904,60.593344 61.9533918,60.111744 L90.7426218,42.64624 C91.3214327,42.294336 92.022193,42.108192 92.7668908,42.108192 C93.7451754,42.108192 94.6954386,42.438144 95.372885,43.0136 L112.158626,57.248352 C112.159522,57.249024 112.160419,57.249696 112.161092,57.250368 C112.877768,57.859872 113.243392,58.696064 113.164932,59.544352 C113.096559,60.369792 112.592398,61.129152 111.783811,61.605376 L82.338655,78.89504 C81.7674659,79.229024 81.0855361,79.405312 80.3646004,79.405312 Z M66.4993665,62.69984 L80.3894834,74.73984 L107.173499,59.0128 L92.744922,46.777248 L66.4993665,62.69984 Z" id="Shape"></path>
                    <path d="M61.0600682,111.941536 C60.6762865,111.941536 60.2920565,111.845216 59.9452632,111.651456 C59.2220858,111.247808 58.7739669,110.485312 58.7737427,109.657632 L58.7593957,71.102976 C58.7591715,70.219072 59.2689376,69.414464 60.0685575,69.0368 C60.8686257,68.658688 61.8141813,68.77584 62.4976803,69.33696 L81.1942593,84.690368 C81.3610429,84.827456 81.7217349,84.986944 82.1911501,84.986944 C82.4442398,84.986944 82.6825341,84.936768 82.8446101,84.84896 L90.7569688,80.584672 C91.4653509,80.202976 92.3225828,80.221344 93.014152,80.633728 C93.7052729,81.046112 94.1287329,81.791136 94.1287329,82.59552 L94.1287329,89.36144 C94.1287329,90.868064 93.1605361,92.60048 91.8760331,93.390752 C91.875809,93.390976 91.8755848,93.390976 91.8753606,93.3912 L62.2584893,111.6024 C61.8917446,111.828416 61.4761306,111.941536 61.0600682,111.941536 Z M63.3338402,75.938016 L63.3450487,105.569408 L89.4092495,89.54288 C89.4623782,89.478592 89.5289571,89.3592 89.556306,89.280352 L89.556306,86.42368 L85.0186257,88.869088 C84.1885185,89.317984 83.2095614,89.55632 82.1913743,89.55632 C80.7243957,89.55632 79.3392398,89.081888 78.2903411,88.22016 L63.3338402,75.938016 Z" id="Shape"></path>
                    <path d="M91.913694,55.055392 C91.1443372,55.055392 90.3933626,54.667648 89.9618324,53.964064 C89.3023197,52.888192 89.6403704,51.48192 90.7172904,50.822464 L91.4032554,50.402464 C92.4803996,49.743232 93.8873002,50.081248 94.5472612,51.157344 C95.2067739,52.233216 94.8687232,53.639488 93.7918031,54.298944 L93.1058382,54.718944 C92.7332651,54.946752 92.3207895,55.055392 91.913694,55.055392 Z" id="Shape"></path>
                    <path d="M74.3088304,65.830016 C73.5394737,65.830016 72.788499,65.442048 72.3569688,64.738688 C71.6974561,63.662592 72.035731,62.25632 73.1124269,61.597088 L85.2300195,54.180672 C86.3069396,53.52144 87.7142885,53.85968 88.3740253,54.935552 C89.033538,56.011648 88.6952632,57.41792 87.6185673,58.077152 L75.5009747,65.493568 C75.1281774,65.721376 74.7157018,65.830016 74.3088304,65.830016 Z" id="Shape"></path>
                </g>
            </g>
        </g>
    </g>
</svg>