<?xml version="1.0" encoding="UTF-8"?>
<svg width="85px" height="38px" viewBox="0 0 85 38" version="1.1" xmlns="http://www.w3.org/2000/svg" xmlns:xlink="http://www.w3.org/1999/xlink">
    <!-- Generator: Sketch 43.1 (39012) - http://www.bohemiancoding.com/sketch -->
    <title>Artboard</title>
    <desc>Created with Sketch.</desc>
    <defs></defs>
    <g id="Page-1" stroke="none" stroke-width="1" fill="none" fill-rule="evenodd">
        <g id="Artboard" fill-rule="nonzero">
            <g id="Asset-4" transform="translate(-14.000000, -6.000000)">
                <path d="M0,50.14 L0,0 L113.23,0 L113.23,50.14 L0,50.14 Z M97.84,36.42 L97.84,10.78 C96.09,11.59 94.43,12.38 92.75,13.13 C92.3404613,13.2869245 92.0809646,13.6923881 92.11,14.13 L92.11,24.95 L92.11,25.9 L91.61,25.12 C88.81,20.7333333 86.0066667,16.35 83.2,11.97 C83.05,11.73 82.8,11.39 82.59,11.39 L77.67,11.39 L77.67,36.39 L83.27,36.39 L83.27,21.65 L83.86,22.55 C86.6733333,26.99 89.49,31.4233333 92.31,35.85 C92.4634969,36.1189645 92.7198114,36.3139079 93.02,36.39 C94.57,36.44 96.16,36.42 97.84,36.42 Z M28.84,23.86 L28.84,25.23 C28.8897109,27.525225 29.534033,29.7682925 30.71,31.74 C32.93,35.17 36.21,36.67 40.22,36.74 C45.119643,37.084035 49.607444,33.9981533 51.04,29.3 C52.1832957,25.8215354 52.1832957,22.0684646 51.04,18.59 C50.1835884,15.5830508 48.0101727,13.126466 45.13,11.91 C42.6446612,10.8775117 39.8863649,10.7015999 37.29,11.41 C34.3465088,12.0463943 31.8289694,13.9391162 30.4,16.59 C29.2296695,18.8279362 28.6773576,21.337503 28.8,23.86 L28.84,23.86 Z M60.18,11.46 L54.56,11.46 L54.56,36.36 L60.19,36.36 L60.19,25.51 L68.3,25.51 L68.3,36.37 L73.95,36.37 L73.95,10.81 C72.6831928,11.4824199 71.381334,12.0866158 70.05,12.62 C69.4398716,12.7483433 68.9079887,13.118886 68.5761898,13.6467479 C68.2443909,14.1746097 68.141108,14.8145582 68.29,15.42 C68.45,17.07 68.29,18.75 68.29,20.42 L60.18,20.42 L60.18,11.46 Z M16.36,36.57 C17.43,36.57 18.47,36.62 19.5,36.57 C22.39,36.4 24.65,35.22 25.71,32.37 C26.0881315,31.4128195 26.3011532,30.3984303 26.34,29.37 C26.42,24.21 26.4,19.06 26.41,13.9 C26.4143047,13.6854006 26.3226396,13.4800707 26.16,13.34 C24.42,12.48 22.66,11.65 20.78,10.75 L20.78,11.69 L20.78,27.39 C20.785779,27.9475061 20.7624138,28.5049332 20.71,29.06 C20.7425147,29.7621084 20.457709,30.4416461 19.9343138,30.9107633 C19.4109186,31.3798805 18.7043756,31.5888849 18.01,31.48 L16.36,31.48 L16.36,36.57 Z" id="Shape" fill="#FFFFFF"></path>
                <path d="M97.84,36.42 L92.97,36.42 C92.6698114,36.3439079 92.4134969,36.1489645 92.26,35.88 C89.4333333,31.4533333 86.6166667,27.02 83.81,22.58 L83.22,21.68 L83.22,36.36 L77.62,36.36 L77.62,11.36 L82.54,11.36 C82.75,11.36 83,11.71 83.15,11.94 C85.9633333,16.32 88.7666667,20.7033333 91.56,25.09 L92.06,25.87 L92.06,24.92 L92.06,14.1 C92.0309646,13.6623881 92.2904613,13.2569245 92.7,13.1 C94.38,12.35 96.05,11.56 97.79,10.75 L97.84,36.42 Z" id="Shape" fill="#000000"></path>
                <path d="M28.8,23.86 C28.6773576,21.337503 29.2296695,18.8279362 30.4,16.59 C31.8289694,13.9391162 34.3465088,12.0463943 37.29,11.41 C39.8863649,10.7015999 42.6446612,10.8775117 45.13,11.91 C48.0055057,13.1401188 50.1680242,15.6078908 51.01,18.62 C52.1532957,22.0984646 52.1532957,25.8515354 51.01,29.33 C49.577444,34.0281533 45.089643,37.114035 40.19,36.77 C36.19,36.67 32.89,35.17 30.68,31.77 C29.504033,29.7982925 28.8597109,27.555225 28.81,25.26 C28.77,24.77 28.8,24.31 28.8,23.86 Z M34.51,23.86 C34.6776957,25.1610141 34.9113297,26.4526764 35.21,27.73 C35.91,30.16 37.67,31.38 40.33,31.46 C42.6264546,31.6546319 44.7502687,30.229058 45.44,28.03 C46.4156673,25.2464448 46.3409878,22.2023639 45.23,19.47 C44.5081909,17.483612 42.5584936,16.2150851 40.45,16.36 C38,16.36 36.21,17.43 35.45,19.6 C35.040324,21.0145759 34.722989,22.454275 34.5,23.91 L34.51,23.86 Z" id="Shape" fill="#000000"></path>
                <path d="M60.18,11.46 L60.18,20.46 L68.29,20.46 C68.29,18.76 68.41,17.08 68.29,15.46 C68.141108,14.8545582 68.2443909,14.2146097 68.5761898,13.6867479 C68.9079887,13.158886 69.4398716,12.7883433 70.05,12.66 C71.3821702,12.1135707 72.6840437,11.4960153 73.95,10.81 L73.95,36.37 L68.3,36.37 L68.3,25.51 L60.19,25.51 L60.19,36.36 L54.56,36.36 L54.56,11.46 L60.18,11.46 Z" id="Shape" fill="#000000"></path>
                <path d="M16.36,36.57 L16.36,31.57 L18.01,31.57 C18.7043756,31.6788849 19.4109186,31.4698805 19.9343138,31.0007633 C20.457709,30.5316461 20.7425147,29.8521084 20.71,29.15 C20.7624138,28.5949332 20.785779,28.0375061 20.78,27.48 L20.78,11.78 L20.78,10.84 C22.66,11.74 24.42,12.57 26.16,13.43 C26.3226396,13.5700707 26.4143047,13.7754006 26.41,13.99 C26.41,19.15 26.41,24.3 26.34,29.46 C26.3011532,30.4884303 26.0881315,31.5028195 25.71,32.46 C24.65,35.31 22.38,36.46 19.5,36.66 C18.46,36.62 17.43,36.57 16.36,36.57 Z" id="Shape" fill="#000000"></path>
                <path d="M34.5,23.91 C34.7218176,22.4713418 35.035797,21.0484136 35.44,19.65 C36.19,17.48 37.99,16.41 40.44,16.41 C42.5484936,16.2650851 44.4981909,17.533612 45.22,19.52 C46.3309878,22.2523639 46.4056673,25.2964448 45.43,28.08 C44.7402687,30.279058 42.6164546,31.7046319 40.32,31.51 C37.67,31.44 35.9,30.21 35.2,27.78 C34.9013297,26.5026764 34.6676957,25.2110141 34.5,23.91 Z" id="Shape" fill="#FFFFFF"></path>
            </g>
        </g>
    </g>
</svg>