<?xml version="1.0" encoding="UTF-8"?>
<svg width="997px" height="162px" viewBox="0 0 997 162" version="1.1" xmlns="http://www.w3.org/2000/svg" xmlns:xlink="http://www.w3.org/1999/xlink" style="background: #FFFFFF;">
    <!-- Generator: Sketch 43.1 (39012) - http://www.bohemiancoding.com/sketch -->
    <title>Desktop</title>
    <desc>Created with Sketch.</desc>
    <defs></defs>
    <g id="Page-1" stroke="none" stroke-width="1" fill="none" fill-rule="evenodd">
        <g id="Desktop">
            <g id="notepad" transform="translate(33.500000, 33.000000)">
                <g id="Group" transform="translate(3.000000, 0.000000)" fill-rule="nonzero" fill="#000000">
                    <path d="M36.5,2 L30.5,2 L30.5,1 C30.5,0.447 30.053,0 29.5,0 L20.5,0 C19.947,0 19.5,0.447 19.5,1 L19.5,2 L13.5,2 L0.5,2 L0.5,60 L49.5,60 L49.5,2 L36.5,2 Z M47.5,38.586 L46.5,39.586 L46.5,5 L37.5,5 L37.5,4 L47.5,4 L47.5,38.586 Z M31.086,55 L5.5,55 L5.5,7 L12.5,7 L12.5,9 L12.5,10 L13.5,10 L36.5,10 L37.5,10 L37.5,9 L37.5,7 L44.5,7 L44.5,41.586 L31.086,55 Z M44.5,44.414 L44.5,55 L33.914,55 L44.5,44.414 Z M28.5,2 L28.5,3 L28.5,5 L21.5,5 L21.5,3 L21.5,2 L28.5,2 Z M19.5,4 L19.5,6 L19.5,7 L20.5,7 L29.5,7 L30.5,7 L30.5,6 L30.5,4 L35.5,4 L35.5,5 L35.5,8 L14.5,8 L14.5,5 L14.5,4 L19.5,4 Z M2.5,4 L12.5,4 L12.5,5 L3.5,5 L3.5,57 L29.086,57 L28.086,58 L2.5,58 L2.5,4 Z M30.914,58 L31.914,57 L46.5,57 L46.5,42.414 L47.5,41.414 L47.5,58 L30.914,58 Z" id="Shape"></path>
                    <path d="M11.5,18 L20.5,18 C21.053,18 21.5,17.553 21.5,17 C21.5,16.447 21.053,16 20.5,16 L11.5,16 C10.947,16 10.5,16.447 10.5,17 C10.5,17.553 10.947,18 11.5,18 Z" id="Shape"></path>
                    <path d="M11.5,26 L16.5,26 C17.053,26 17.5,25.553 17.5,25 C17.5,24.447 17.053,24 16.5,24 L11.5,24 C10.947,24 10.5,24.447 10.5,25 C10.5,25.553 10.947,26 11.5,26 Z" id="Shape"></path>
                    <path d="M33.5,24 L26.5,24 C25.947,24 25.5,24.447 25.5,25 C25.5,25.553 25.947,26 26.5,26 L33.5,26 C34.053,26 34.5,25.553 34.5,25 C34.5,24.447 34.053,24 33.5,24 Z" id="Shape"></path>
                    <path d="M20.79,24.29 C20.6,24.479 20.5,24.729 20.5,25 C20.5,25.27 20.609,25.52 20.79,25.71 C20.979,25.89 21.229,26 21.5,26 C21.77,26 22.02,25.899 22.21,25.71 C22.39,25.52 22.5,25.26 22.5,25 C22.5,24.739 22.39,24.479 22.21,24.29 C21.83,23.92 21.17,23.92 20.79,24.29 Z" id="Shape"></path>
                    <path d="M39.21,24.29 C38.84,23.92 38.17,23.92 37.79,24.29 C37.6,24.479 37.5,24.729 37.5,25 C37.5,25.27 37.609,25.52 37.79,25.71 C37.979,25.89 38.229,26 38.5,26 C38.77,26 39.02,25.89 39.21,25.71 C39.39,25.52 39.5,25.26 39.5,25 C39.5,24.739 39.39,24.479 39.21,24.29 Z" id="Shape"></path>
                    <path d="M23.5,32 L16.5,32 C15.947,32 15.5,32.447 15.5,33 C15.5,33.553 15.947,34 16.5,34 L23.5,34 C24.053,34 24.5,33.553 24.5,33 C24.5,32.447 24.053,32 23.5,32 Z" id="Shape"></path>
                    <path d="M11.5,34 C11.77,34 12.02,33.89 12.21,33.71 C12.39,33.52 12.5,33.26 12.5,33 C12.5,32.739 12.39,32.479 12.21,32.29 C11.84,31.92 11.16,31.92 10.79,32.29 C10.609,32.479 10.5,32.729 10.5,33 C10.5,33.27 10.609,33.52 10.79,33.71 C10.979,33.89 11.229,34 11.5,34 Z" id="Shape"></path>
                    <path d="M14.645,41.166 C12.455,42.306 11.718,44.487 11.449,46.748 C11.035,46.401 10.621,46.055 10.207,45.708 C9.227,44.887 7.805,46.294 8.793,47.123 C9.728,47.906 10.664,48.69 11.599,49.474 C12.257,50.025 13.276,49.677 13.306,48.767 C13.379,46.601 13.481,44.025 15.654,42.894 C16.796,42.299 15.786,40.572 14.645,41.166 Z" id="Shape"></path>
                    <path d="M21.295,45.155 C19.91,45.476 18.334,47.238 17.359,45.261 C16.79,44.107 15.064,45.119 15.632,46.27 C16.149,47.319 17.132,48.054 18.301,48.202 C18.895,48.277 19.432,48.193 19.989,47.976 C20.398,47.817 21.926,46.668 22.256,47.259 C22.884,48.383 24.612,47.375 23.983,46.25 C23.446,45.288 22.359,44.908 21.295,45.155 Z" id="Shape"></path>
                </g>
                <text id="Research" font-family="Roboto-Bold, Roboto" font-size="13" font-weight="bold" fill="#222222">
                    <tspan x="0.5" y="78">Research</tspan>
                </text>
            </g>
            <g id="Group-2" transform="translate(229.500000, 33.000000)">
                <g id="loupe" transform="translate(9.435205, 0.000000)" fill-rule="nonzero" fill="#000000">
                    <path d="M39.3305832,0 C27.9334341,0 18.6610367,9.27226782 18.6610367,20.6695464 C18.6610367,25.3591361 20.2319222,29.6880778 22.8736069,33.1601728 L18.6864363,37.3473434 C18.6598704,37.3739093 18.6356371,37.4019006 18.6126998,37.4306695 C18.2699352,37.3592657 17.9177106,37.3218143 17.5595248,37.3218143 C16.1923542,37.3218143 14.9068251,37.8542981 13.9396976,38.8214255 L1.49922246,51.2619006 C0.532354212,52.2285097 0,53.5139093 0,54.8812095 C0,56.2485097 0.532354212,57.5340389 1.49909287,58.5003888 C2.4662203,59.4675162 3.75174946,60 5.11892009,60 C6.48609071,60 7.77161987,59.4675162 8.7387473,58.5003888 L21.1792225,46.0599136 C22.1460907,45.0934341 22.6784449,43.8080346 22.6784449,42.4406048 C22.6784449,42.0822894 22.6409935,41.7299352 22.5695896,41.3871706 C22.5983585,41.3643629 22.6262203,41.3401296 22.6527862,41.3135637 L26.8398272,37.1265227 C30.3120518,39.7683369 34.6409935,41.3390929 39.3305832,41.3390929 C50.7277322,41.3390929 60.0001296,32.0668251 60.0001296,20.6695464 C60.0001296,9.27226782 50.7277322,0 39.3305832,0 Z M7.36406048,57.1259611 C6.76419006,57.7258315 5.96695464,58.0561555 5.11892009,58.0561555 C4.27088553,58.0561555 3.47365011,57.7258315 2.87365011,57.1258315 C2.27403888,56.5264795 1.94384449,55.7293737 1.94384449,54.8812095 C1.94384449,54.0330454 2.27403888,53.2359395 2.8737797,52.6364579 L14.1089417,41.4012959 L18.5988337,45.8911879 L7.36406048,57.1259611 Z M19.9665227,44.509892 L15.4920518,40.0354212 C16.0849244,39.5253564 16.8213823,39.267473 17.5595248,39.267473 C18.3725702,39.267473 19.1858747,39.5770626 19.8047948,40.1961123 C20.404406,40.7954644 20.7346004,41.5925702 20.7346004,42.4407343 C20.7346004,43.2086825 20.4629806,43.9343844 19.9665227,44.509892 Z M21.7360691,39.4814255 C21.5704536,39.2486825 21.3853996,39.027473 21.1793521,38.8215551 C20.9730454,38.615378 20.7515767,38.4301944 20.5187041,38.2644492 L24.1266091,34.6565443 C24.515378,35.0788769 24.9215119,35.4850108 25.3438445,35.8737797 L21.7360691,39.4814255 Z M39.3305832,39.3952484 C29.0051404,39.3952484 20.6048812,30.9949892 20.6048812,20.6695464 C20.6048812,10.3441037 29.0051404,1.94384449 39.3305832,1.94384449 C49.6560259,1.94384449 58.0562851,10.3441037 58.0562851,20.6695464 C58.0562851,30.9949892 49.6560259,39.3952484 39.3305832,39.3952484 Z" id="Shape"></path>
                    <path d="M39.3305832,4.14686825 C30.2199136,4.14686825 22.807905,11.5588769 22.807905,20.6695464 C22.807905,29.780216 30.2199136,37.1922246 39.3305832,37.1922246 C48.4412527,37.1922246 55.8532613,29.780216 55.8532613,20.6695464 C55.8532613,11.5588769 48.4412527,4.14686825 39.3305832,4.14686825 Z M39.3305832,35.2483801 C31.291879,35.2483801 24.7517495,28.7083801 24.7517495,20.6695464 C24.7517495,12.6307127 31.291879,6.09071274 39.3305832,6.09071274 C47.3692873,6.09071274 53.9094168,12.6307127 53.9094168,20.6695464 C53.9094168,28.7083801 47.3692873,35.2483801 39.3305832,35.2483801 Z" id="Shape"></path>
                    <path d="M46.0794816,10.2943413 C45.6298056,10.0012095 45.0277322,10.1280778 44.7346004,10.5778834 C44.4414687,11.0275594 44.5684665,11.6297624 45.0181425,11.9227646 C47.9888553,13.8588337 49.762419,17.1286393 49.762419,20.6695464 C49.762419,23.0885961 48.9156803,25.4462203 47.3780994,27.307905 C47.0362419,27.7216847 47.0946868,28.3343844 47.5085961,28.6762419 C47.6897624,28.8259179 47.9090281,28.8987473 48.1269978,28.8987473 C48.4069114,28.8987473 48.6847516,28.7783585 48.876933,28.5457451 C50.7014255,26.3366307 51.7062635,23.5394384 51.7062635,20.669676 C51.7063931,16.4691577 49.6028942,12.5906695 46.0794816,10.2943413 Z" id="Shape"></path>
                    <path d="M41.5796112,8.49784017 C40.8425054,8.36241901 40.0858315,8.2937365 39.3305832,8.2937365 C38.7936933,8.2937365 38.3586609,8.72889849 38.3586609,9.26565875 C38.3586609,9.80241901 38.7936933,10.237581 39.3305832,10.237581 C39.9684233,10.237581 40.6069114,10.2955076 41.2284233,10.409676 C41.287905,10.4205616 41.3468683,10.4258747 41.4051836,10.4258747 C41.8650972,10.4258747 42.2738229,10.0978834 42.36,9.62941685 C42.456933,9.10146868 42.1075594,8.59490281 41.5796112,8.49784017 Z" id="Shape"></path>
                </g>
                <text id="Problem-Identificati" font-family="Roboto-Bold, Roboto" font-size="13" font-weight="bold" fill="#222222">
                    <tspan x="14.8520508" y="78">Problem </tspan>
                    <tspan x="0.8046875" y="93">Identification</tspan>
                </text>
            </g>
            <g id="Group-3" transform="translate(448.500000, 33.000000)">
                <g id="light-bulb" transform="translate(2.000000, 0.000000)" fill-rule="nonzero" fill="#000000">
                    <path d="M17.2031818,52.5605303 C16.6856061,52.5605303 16.2637121,52.1406061 16.2637121,51.6230303 C16.2637121,51.1054545 16.6836364,50.6855303 17.2031818,50.6855303 L28.1016667,50.6855303 C28.6192424,50.6855303 29.0391667,51.1054545 29.0391667,51.6230303 C29.0391667,52.1406061 28.6192424,52.5605303 28.1016667,52.5605303 L17.2031818,52.5605303 Z" id="Shape"></path>
                    <path d="M18.4140909,56.2812121 C17.8965152,56.2812121 17.4765909,55.8612879 17.4765909,55.3437121 C17.4765909,54.8261364 17.8984848,54.4062121 18.4140909,54.4062121 L26.8906818,54.4062121 C27.4082576,54.4062121 27.8281818,54.8261364 27.8281818,55.3437121 C27.8281818,55.8612879 27.4082576,56.2812121 26.8906818,56.2812121 L18.4140909,56.2812121 Z" id="Shape"></path>
                    <path d="M21.7695455,43.320303 C21.7695455,43.8359848 21.3515909,44.2538636 20.8359848,44.2538636 C20.3203788,44.2538636 19.9024242,43.8358333 19.9024242,43.320303 C19.8984848,39.3730303 19.7852273,36.4238636 19.240303,33.6933333 C18.7012879,30.9941667 17.7363636,28.492197 16.0235606,25.4062121 C15.7735606,24.9550758 15.9356818,24.3866667 16.3849242,24.1366667 C16.8361364,23.8866667 17.4044697,24.0487879 17.6564394,24.4980303 C19.4747727,27.7753788 20.5040909,30.4434091 21.0782576,33.3281818 C21.6465152,36.1758333 21.7656818,39.2343939 21.7695455,43.320303 Z" id="Shape"></path>
                    <path d="M25.4024242,43.320303 C25.4024242,43.8359848 24.9843939,44.2538636 24.4688636,44.2538636 C23.9533333,44.2538636 23.535303,43.8358333 23.535303,43.320303 C23.5393182,39.2342424 23.6583333,36.1777273 24.2266667,33.3281818 C24.8009091,30.4434091 25.8302273,27.7755303 27.6485606,24.4980303 C27.8986364,24.0468939 28.4688636,23.8847727 28.9181818,24.1366667 C29.3693939,24.3866667 29.5293939,24.9569697 29.2795455,25.4062121 C27.5666667,28.4921212 26.6018182,30.9961364 26.0627273,33.6933333 C25.5196212,36.4238636 25.4044697,39.3731061 25.4024242,43.320303 Z" id="Shape"></path>
                    <path d="M16.5547727,25.8418182 C16.0625758,25.6855303 15.7930303,25.1582576 15.9493182,24.6659848 C16.1075,24.1737879 16.6328788,23.9042424 17.1251515,24.0605303 C17.7775,24.2715152 18.3419697,24.554697 18.8634091,24.8164394 L18.9141667,24.8437879 C19.7285606,25.2539394 20.4063636,25.5742424 20.9102273,25.1640909 L22.0625758,24.2246212 C22.4629545,23.9004545 23.0529545,23.9609848 23.3770455,24.3613636 C23.7012879,24.7617424 23.6406818,25.3515909 23.240303,25.6758333 L22.0879545,26.615303 C20.6524242,27.7832576 19.4785606,27.2149242 18.0645455,26.5059091 L18.0215909,26.4863636 C17.5645455,26.2558333 17.0684091,26.007803 16.5547727,25.8418182 Z" id="Shape"></path>
                    <path d="M23.59,4.57030303 C23.59,5.08787879 23.1700758,5.50780303 22.6524242,5.50780303 C22.1348485,5.50780303 21.7149242,5.08787879 21.7149242,4.57030303 L21.7149242,0.9375 C21.7149242,0.419924242 22.1348485,0 22.6524242,0 C23.1701515,0 23.59,0.419924242 23.59,0.9375 L23.59,4.57030303 Z" id="Shape"></path>
                    <path d="M28.1798485,24.0605303 C28.6720455,23.9023485 29.1993939,24.1738636 29.3556818,24.6659848 C29.5138636,25.1581818 29.2424242,25.6855303 28.7502273,25.8418182 C28.2366667,26.007803 27.7405303,26.257803 27.2814394,26.4883333 L27.2385606,26.5078788 C25.8263636,27.2168182 24.6506818,27.787197 23.2151515,26.617197 L22.062803,25.677803 C21.6624242,25.3535606 21.6018939,24.7637121 21.9260606,24.3633333 C22.250303,23.9629545 22.8401515,23.9024242 23.2406061,24.2265909 L24.3929545,25.1660606 C24.8968939,25.5762121 25.5726515,25.2539394 26.3890909,24.8457576 L26.44,24.8184091 C26.9630303,24.554697 27.5274242,24.2715152 28.1798485,24.0605303 Z" id="Shape"></path>
                    <path d="M34.4474242,14.5722727 C37.465,17.5898485 39.3341667,21.7617424 39.3341667,26.367197 C39.3341667,28.1680303 39.0451515,29.9081818 38.5138636,31.5391667 C37.9650758,33.224697 37.1506061,34.7969697 36.1252273,36.1993939 C34.4045455,38.5528788 33.0081061,40.097803 31.9240909,41.2988636 C29.9728788,43.4570455 29.1174242,44.4025 29.1174242,47.5587121 C29.1174242,48.0762879 28.6975,48.4962121 28.1799242,48.4962121 L28.1563636,48.4962121 L22.6934848,48.4962121 L17.2052273,48.4962121 C16.6876515,48.4962121 16.2657576,48.0762879 16.2657576,47.5587121 C16.2657576,44.4337121 15.3927273,43.4786364 13.4552273,41.3555303 L13.4532576,41.3536364 L13.4512879,41.3555303 C12.3556061,40.1563636 10.9454545,38.6113636 9.18174242,36.1993182 C8.15636364,34.7968939 7.34189394,33.2227273 6.79310606,31.537197 C6.26181818,29.9082576 5.97280303,28.1660606 5.97280303,26.3672727 C5.97280303,24.1134091 6.42401515,21.9571212 7.24037879,19.9883333 L7.25795455,19.9512121 C8.10560606,17.9199242 9.34,16.0918182 10.8614394,14.5723485 C12.3927273,13.0411364 14.2306061,11.802803 16.2775,10.9551515 L16.2775,10.9531818 C18.2462121,10.1368182 20.4025,9.68560606 22.6564394,9.68560606 C24.9065909,9.68560606 27.0607576,10.1368182 29.0315152,10.9531818 C31.0743939,11.8008333 32.9161364,13.0410606 34.4474242,14.5722727 L34.4474242,14.5722727 Z M37.457197,26.367197 C37.457197,22.2793182 35.7988636,18.5781818 33.1212879,15.8984091 C31.7522727,14.5292424 30.1212879,13.4277273 28.3165909,12.6815909 C26.5783333,11.9609091 24.6642424,11.5625 22.6524242,11.5625 C20.6426515,11.5625 18.7286364,11.9609091 16.9922727,12.6815909 L16.9922727,12.679697 L16.9883333,12.6815909 C15.1836364,13.4277273 13.5547727,14.5292424 12.1856061,15.8984091 C10.8301515,17.2538636 9.7344697,18.8710606 8.98636364,20.6562121 L8.96681818,20.7069697 C8.24810606,22.4432576 7.84772727,24.3573485 7.84772727,26.3671212 C7.84772727,27.9725758 8.10356061,29.5194697 8.57234848,30.9588636 C9.06257576,32.4568182 9.78325758,33.8515152 10.6895455,35.0936364 C12.3829545,37.41 13.7618182,38.9198485 14.8340909,40.0955303 L14.8321212,40.0974242 C16.9180303,42.3767424 17.9551515,43.5173485 18.1172727,46.622803 L22.6895455,46.622803 L27.2618182,46.622803 C27.4219697,43.4959091 28.4395455,42.3669697 30.5352273,40.0505303 C31.5821212,38.8923485 32.927803,37.4021212 34.6134091,35.0974242 C35.5196212,33.857197 36.2403788,32.4626515 36.7286364,30.9646212 C37.2013636,29.5195455 37.457197,27.9746212 37.457197,26.367197 Z" id="Shape"></path>
                    <path d="M19.6250758,60 C19.1075,60 18.6875758,59.5800758 18.6875758,59.0625 C18.6875758,58.5449242 19.1075,58.125 19.6250758,58.125 L25.6798485,58.125 C26.1974242,58.125 26.6173485,58.5449242 26.6173485,59.0625 C26.6173485,59.5800758 26.1974242,60 25.6798485,60 L19.6250758,60 Z" id="Shape"></path>
                    <path d="M34.1544697,7.90037879 C33.8984848,8.34568182 33.3262121,8.5 32.8789394,8.24416667 C32.4336364,7.98833333 32.2794697,7.41606061 32.535303,6.96878788 L34.3517424,3.82234848 C34.6075758,3.37704545 35.1799242,3.22272727 35.6271212,3.47856061 C36.0743939,3.73439394 36.2267424,4.30666667 35.9709091,4.75393939 L34.1544697,7.90037879 Z" id="Shape"></path>
                    <path d="M12.7676515,6.97068182 C13.0234848,7.41598485 12.8712121,7.98825758 12.4238636,8.24416667 C11.9785606,8.5 11.4062879,8.34568182 11.1504545,7.90037879 L9.33401515,4.75386364 C9.07818182,4.30856061 9.23242424,3.73628788 9.67780303,3.48045455 C10.1250758,3.22462121 10.6973485,3.37886364 10.9531818,3.82416667 L12.7676515,6.97068182 Z" id="Shape"></path>
                    <path d="M4.59772727,14.4531061 C5.0430303,14.7089394 5.19734848,15.2812121 4.94151515,15.7284848 C4.68568182,16.1737879 4.11333333,16.3281061 3.6680303,16.0722727 L0.521515152,14.2558333 C0.0742424242,14 -0.08,13.4277273 0.175833333,12.9824242 C0.431666667,12.5351515 1.00393939,12.382803 1.45121212,12.6386364 L4.59772727,14.4531061 Z" id="Shape"></path>
                    <path d="M41.6368182,16.0722727 C41.1895455,16.3281061 40.6172727,16.1738636 40.3614394,15.7284848 C40.1055303,15.2812121 40.2598485,14.7089394 40.7051515,14.4531061 L43.8516667,12.6366667 C44.2987879,12.3808333 44.8710606,12.5350758 45.1270455,12.9804545 C45.3828788,13.4257576 45.2286364,14 44.7832576,14.2558333 L41.6368182,16.0722727 Z" id="Shape"></path>
                    <path d="M12.912197,30.0722727 C13.1114394,30.5468939 12.8887879,31.0956818 12.4141667,31.2949242 C11.9395455,31.4941667 11.3907576,31.2714394 11.1915152,30.7968939 C10.8731061,30.0431061 10.6250758,29.2481818 10.4609848,28.4278788 C10.2988636,27.6173485 10.2109848,26.7892424 10.2109848,25.957197 C10.2109848,25.4396212 10.6328788,25.019697 11.1484848,25.019697 C11.6660606,25.019697 12.0859848,25.4415909 12.0859848,25.957197 C12.0859848,26.6896212 12.1582576,27.394697 12.2930303,28.0626515 C12.4317424,28.757803 12.6426515,29.4335606 12.912197,30.0722727 L12.912197,30.0722727 Z M12.912197,21.8398485 C12.7130303,22.3144697 12.1641667,22.5371212 11.6895455,22.3378788 C11.2149242,22.1386364 10.9922727,21.5897727 11.1915152,21.1152273 C11.5059091,20.3710606 11.8906818,19.6659848 12.3301515,19.0116667 L12.3321212,19.009697 L12.3301515,19.007803 C12.7813636,18.3398485 13.2930303,17.7187121 13.8535606,17.1581818 C14.4082576,16.6034848 15.0293939,16.0917424 15.7050758,15.6367424 L15.7050758,15.6347727 C16.3535606,15.1972727 17.0625,14.8125 17.8125,14.4961364 C18.5644697,14.1777273 19.3574242,13.929697 20.179697,13.7656061 C20.9902273,13.6015152 21.8222727,13.5156061 22.6523485,13.5156061 C23.1700758,13.5156061 23.5899242,13.9355303 23.5899242,14.4531061 C23.5899242,14.9706818 23.17,15.3906061 22.6523485,15.3906061 C21.9179545,15.3906061 21.2109848,15.4628788 20.5449242,15.5956818 C19.8476515,15.7343939 19.1737879,15.9472727 18.5371212,16.2167424 C17.9180303,16.4784848 17.320303,16.8046212 16.7519697,17.1874242 L16.7519697,17.1874242 L16.75,17.1874242 C16.1972727,17.5584848 15.6699242,17.9959848 15.1816667,18.4843182 C14.6992424,18.9667424 14.2617424,19.4960606 13.8847727,20.0565909 L13.882803,20.0546212 C13.5020455,20.6191667 13.1758333,21.2168182 12.912197,21.8398485 Z" id="Shape"></path>
                </g>
                <text id="Ideation" font-family="Roboto-Bold, Roboto" font-size="13" font-weight="bold" fill="#222222">
                    <tspan x="0.860499527" y="78">Ideation</tspan>
                </text>
            </g>
            <g id="Group-4" transform="translate(637.500000, 33.000000)">
                <g id="vector" stroke="#000000" stroke-width="2" fill-rule="nonzero">
                    <path d="M59.1263115,19.7704918 L56.1386066,16.7827869 C55.6345082,16.2786885 54.9582787,15.9959016 54.2451639,15.9959016 C53.5320492,15.9959016 52.8558197,16.2786885 52.3517213,16.7827869 L51.9459836,17.1885246 C47.9992623,14.557377 43.4131967,13.1680328 38.6058197,13.1557377 L38.5566393,13.1557377 C35.5689344,13.1557377 32.6795902,13.6844262 29.962377,14.7172131 L35.200082,9.4795082 C35.8640164,9.79918033 36.5894262,9.95901639 37.3394262,9.95901639 C38.6672951,9.95901639 39.9213934,9.44262295 40.8558197,8.49590164 C41.7902459,7.56147541 42.3189344,6.30737705 42.3189344,4.9795082 C42.3189344,3.65163934 41.802541,2.39754098 40.8558197,1.46311475 C39.9090984,0.528688525 38.6672951,0 37.3394262,0 C36.0115574,0 34.757459,0.516393443 33.8230328,1.46311475 C32.8886066,2.40983607 32.359918,3.65163934 32.359918,4.9795082 C32.359918,5.7295082 32.5320492,6.46721311 32.8394262,7.11885246 L23.4090984,16.5491803 L23.0894262,16.2295082 C22.5853279,15.7254098 21.9090984,15.442623 21.1959836,15.442623 C20.4828689,15.442623 19.8066393,15.7254098 19.302541,16.2295082 L16.2779508,19.2418033 C15.7738525,19.7459016 15.4910656,20.4221311 15.4910656,21.1352459 C15.4910656,21.8483607 15.7738525,22.5245902 16.2779508,23.0286885 L16.597623,23.3483607 L7.16729508,32.7786885 C6.50336066,32.4590164 5.77795082,32.2991803 5.02795082,32.2991803 C3.70008197,32.2991803 2.44598361,32.8155738 1.51155738,33.7622951 C-0.431065574,35.704918 -0.431065574,38.8647541 1.51155738,40.795082 C2.44598361,41.7295082 3.70008197,42.2581967 5.02795082,42.2581967 C6.35581967,42.2581967 7.60991803,41.7418033 8.54434426,40.795082 C10.0689344,39.2704918 10.4009016,36.9836066 9.51565574,35.1393443 L14.7533607,29.9016393 C13.7205738,32.6311475 13.1795902,35.545082 13.1918852,38.545082 C13.2041803,43.352459 14.5935246,47.9385246 17.2246721,51.8852459 L16.7205738,52.3893443 C15.6754918,53.4344262 15.6754918,55.1434426 16.7205738,56.1885246 L19.7205738,59.1885246 C20.2246721,59.692623 20.9009016,59.9754098 21.6140164,59.9754098 C22.3271311,59.9754098 23.0033607,59.692623 23.507459,59.1885246 L26.507459,56.1885246 C27.552541,55.1434426 27.552541,53.4344262 26.507459,52.3893443 L23.507459,49.3893443 C23.0033607,48.8852459 22.3271311,48.602459 21.6140164,48.602459 C20.9009016,48.602459 20.2246721,48.8852459 19.7205738,49.3893443 L19.6345082,49.4754098 C15.3189344,42.4795082 15.5033607,33.4303279 20.212377,26.6188525 C20.5197541,26.7418033 20.8394262,26.8032787 21.1836885,26.8032787 C21.8968033,26.8032787 22.5730328,26.5204918 23.0771311,26.0163934 L26.0771311,23.0163934 C26.8517213,22.2418033 27.0484426,21.1106557 26.6795902,20.1516393 C33.4910656,15.442623 42.5402459,15.2459016 49.5361475,19.5737705 L49.3517213,19.7581967 C48.3066393,20.8032787 48.3066393,22.5122951 49.3517213,23.557377 L52.3517213,26.557377 C52.8558197,27.0614754 53.5320492,27.3442623 54.2451639,27.3442623 C54.9582787,27.3442623 55.6345082,27.0614754 56.1386066,26.557377 L59.1386066,23.557377 C60.1836885,22.5245902 60.1836885,20.8278689 59.1263115,19.7704918 Z M23.7041803,54.307377 L21.6017213,56.4098361 L19.4992623,54.307377 L21.6017213,52.204918 L23.7041803,54.307377 Z M36.1468033,3.82377049 C36.4541803,3.51639344 36.8722131,3.3442623 37.3148361,3.3442623 C37.757459,3.3442623 38.1754918,3.51639344 38.4828689,3.82377049 C38.7902459,4.13114754 38.962377,4.54918033 38.962377,4.99180328 C38.962377,5.43442623 38.7902459,5.85245902 38.4828689,6.15983607 C38.1754918,6.46721311 37.757459,6.63934426 37.3148361,6.63934426 C36.8722131,6.63934426 36.4541803,6.46721311 36.1468033,6.15983607 L36.1468033,6.15983607 L36.1468033,6.15983607 C35.8394262,5.85245902 35.6672951,5.43442623 35.6672951,4.99180328 C35.6672951,4.54918033 35.8394262,4.14344262 36.1468033,3.82377049 Z M6.19598361,38.4590164 C5.88860656,38.7663934 5.47057377,38.9385246 5.02795082,38.9385246 C4.58532787,38.9385246 4.16729508,38.7663934 3.85991803,38.4590164 C3.20827869,37.807377 3.20827869,36.7622951 3.85991803,36.1229508 C4.16729508,35.8155738 4.58532787,35.6434426 5.02795082,35.6434426 C5.47057377,35.6434426 5.88860656,35.8155738 6.19598361,36.1229508 C6.84762295,36.7622951 6.84762295,37.8196721 6.19598361,38.4590164 Z M21.1713934,23.2377049 L19.0689344,21.1352459 L21.1713934,19.0327869 L22.2164754,20.0778689 L22.2164754,20.0778689 L22.2164754,20.0778689 L23.2615574,21.1229508 L21.1713934,23.2377049 Z M54.2328689,23.7663934 L52.1304098,21.6639344 L54.2328689,19.5614754 L56.3353279,21.6639344 L54.2328689,23.7663934 Z" id="Shape"></path>
                </g>
                <text id="Concept" font-family="Roboto-Bold, Roboto" font-size="13" font-weight="bold" fill="#222222">
                    <tspan x="5.67260742" y="79">Concept</tspan>
                </text>
            </g>
            <g id="Group-5" transform="translate(834.500000, 33.000000)">
                <g id="smartphone" transform="translate(3.500000, 0.000000)" fill-rule="nonzero" fill="#000000">
                    <path d="M50.761,31.724 L47.911,28.873 C46.748,27.711 44.854,27.712 43.69,28.874 L28.299,44.265 L26.177,52.044 L25.658,52.563 C25.27,52.951 25.269,53.577 25.652,53.968 L25.647,53.988 L25.666,53.983 C25.86,54.173 26.112,54.271 26.365,54.271 C26.621,54.271 26.877,54.173 27.072,53.978 L27.592,53.458 L35.37,51.337 L50.761,35.946 C51.925,34.781 51.925,32.888 50.761,31.724 Z M30.609,44.784 L40.851,34.542 L45.094,38.784 L34.851,49.027 L30.609,44.784 Z M29.706,46.71 L32.926,49.93 L28.498,51.138 L29.706,46.71 Z M49.347,34.531 L46.508,37.37 L42.265,33.128 L45.104,30.289 C45.489,29.904 46.114,29.905 46.498,30.288 L49.347,33.138 C49.731,33.521 49.731,34.147 49.347,34.531 Z" id="Shape"></path>
                    <path d="M13.366,53 C13.366,55.206 15.16,57 17.366,57 C19.572,57 21.366,55.206 21.366,53 C21.366,50.794 19.572,49 17.366,49 C15.16,49 13.366,50.794 13.366,53 Z M19.366,53 C19.366,54.103 18.469,55 17.366,55 C16.263,55 15.366,54.103 15.366,53 C15.366,51.897 16.263,51 17.366,51 C18.469,51 19.366,51.897 19.366,53 Z" id="Shape"></path>
                    <path d="M29.961,58 L4.771,58 C3.445,58 2.366,56.921 2.366,55.595 L2.366,48 L23.366,48 C23.918,48 24.366,47.553 24.366,47 C24.366,46.447 23.918,46 23.366,46 L2.366,46 L2.366,8 L32.366,8 L32.366,30 C32.366,30.553 32.814,31 33.366,31 C33.918,31 34.366,30.553 34.366,30 L34.366,4.405 C34.366,1.977 32.39,0 29.961,0 L4.771,0 C2.342,0 0.366,1.977 0.366,4.405 L0.366,55.594 C0.366,58.023 2.342,60 4.771,60 L29.96,60 C30.512,60 30.96,59.553 30.96,59 C30.96,58.447 30.513,58 29.961,58 Z M4.771,2 L29.96,2 C31.286,2 32.365,3.079 32.365,4.405 L32.365,6 L2.365,6 L2.365,4.405 C2.366,3.079 3.445,2 4.771,2 Z" id="Shape"></path>
                    <path d="M13.366,5 L17.366,5 C17.918,5 18.366,4.553 18.366,4 C18.366,3.447 17.918,3 17.366,3 L13.366,3 C12.814,3 12.366,3.447 12.366,4 C12.366,4.553 12.814,5 13.366,5 Z" id="Shape"></path>
                    <path d="M25.5,5 L26.5,5 C27.052,5 27.5,4.553 27.5,4 C27.5,3.447 27.052,3 26.5,3 L25.5,3 C24.948,3 24.5,3.447 24.5,4 C24.5,4.553 24.948,5 25.5,5 Z" id="Shape"></path>
                </g>
                <text id="Prototype" font-family="Roboto-Bold, Roboto" font-size="13" font-weight="bold" fill="#222222">
                    <tspan x="0.967285156" y="79">Prototype</tspan>
                </text>
            </g>
        </g>
    </g>
</svg>